<svg width="16" height="18" viewBox="0 0 16 18" fill="none" xmlns="http://www.w3.org/2000/svg">
<path d="M0 8.5C0 4.08172 3.58172 0.5 8 0.5V0.5C12.4183 0.5 16 4.08172 16 8.5V8.5C16 12.9183 12.4183 16.5 8 16.5V16.5C3.58172 16.5 0 12.9183 0 8.5V8.5Z" fill="url(#paint0_linear_19330_104346)"/>
<g filter="url(#filter0_d_19330_104346)">
<path d="M5.80532 12.4696C5.61232 12.5752 5.39332 12.3901 5.43232 12.1539L5.84732 9.6313L4.08583 7.84149C3.92133 7.67403 4.00683 7.3679 4.22733 7.33484L6.67632 6.96365L7.76832 4.65599C7.86682 4.448 8.13332 4.448 8.23182 4.65599L9.32381 6.96365L11.7728 7.33484C11.9933 7.3679 12.0788 7.67403 11.9138 7.84149L10.1528 9.6313L10.5678 12.1539C10.6068 12.3901 10.3878 12.5752 10.1948 12.4696L7.99932 11.2664L5.80532 12.4696Z" fill="white"/>
</g>
<defs>
<filter id="filter0_d_19330_104346" x="0.8" y="2.9" width="14.4" height="14.4" filterUnits="userSpaceOnUse" color-interpolation-filters="sRGB">
<feFlood flood-opacity="0" result="BackgroundImageFix"/>
<feColorMatrix in="SourceAlpha" type="matrix" values="0 0 0 0 0 0 0 0 0 0 0 0 0 0 0 0 0 0 127 0" result="hardAlpha"/>
<feOffset dy="1.6"/>
<feGaussianBlur stdDeviation="1.6"/>
<feComposite in2="hardAlpha" operator="out"/>
<feColorMatrix type="matrix" values="0 0 0 0 0.491667 0 0 0 0 0 0 0 0 0 0 0 0 0 0.3 0"/>
<feBlend mode="normal" in2="BackgroundImageFix" result="effect1_dropShadow_19330_104346"/>
<feBlend mode="normal" in="SourceGraphic" in2="effect1_dropShadow_19330_104346" result="shape"/>
</filter>
<linearGradient id="paint0_linear_19330_104346" x1="8" y1="0.5" x2="8" y2="16.5" gradientUnits="userSpaceOnUse">
<stop stop-color="#4BC789"/>
<stop offset="1" stop-color="#009248"/>
</linearGradient>
</defs>
</svg>
